<mxfile host="app.diagrams.net" agent="Mozilla/5.0 (Windows NT 10.0; Win64; x64) AppleWebKit/537.36 (KHTML, like Gecko) Chrome/131.0.0.0 Safari/537.36 Edg/131.0.0.0" version="25.0.1">
  <diagram name="หน้า-1" id="bX7ViIV-R1PDK09V0Yfu">
    <mxGraphModel dx="1388" dy="663" grid="1" gridSize="10" guides="1" tooltips="1" connect="1" arrows="1" fold="1" page="1" pageScale="1" pageWidth="827" pageHeight="1169" math="0" shadow="0">
      <root>
        <mxCell id="0" />
        <mxCell id="1" parent="0" />
        <mxCell id="XqavyRiX7k_gru05BtDZ-3" value="" style="edgeStyle=orthogonalEdgeStyle;rounded=0;orthogonalLoop=1;jettySize=auto;html=1;" edge="1" parent="1" source="XqavyRiX7k_gru05BtDZ-1" target="XqavyRiX7k_gru05BtDZ-2">
          <mxGeometry relative="1" as="geometry" />
        </mxCell>
        <mxCell id="XqavyRiX7k_gru05BtDZ-1" value="Start" style="ellipse;whiteSpace=wrap;html=1;" vertex="1" parent="1">
          <mxGeometry x="349" y="90" width="120" height="80" as="geometry" />
        </mxCell>
        <mxCell id="XqavyRiX7k_gru05BtDZ-8" value="" style="edgeStyle=orthogonalEdgeStyle;rounded=0;orthogonalLoop=1;jettySize=auto;html=1;" edge="1" parent="1" source="XqavyRiX7k_gru05BtDZ-4" target="XqavyRiX7k_gru05BtDZ-5">
          <mxGeometry relative="1" as="geometry" />
        </mxCell>
        <mxCell id="XqavyRiX7k_gru05BtDZ-2" value="รับข้อมูลเลขUser&amp;nbsp;" style="shape=parallelogram;perimeter=parallelogramPerimeter;whiteSpace=wrap;html=1;fixedSize=1;" vertex="1" parent="1">
          <mxGeometry x="314" y="230" width="190" height="60" as="geometry" />
        </mxCell>
        <mxCell id="XqavyRiX7k_gru05BtDZ-12" value="" style="edgeStyle=orthogonalEdgeStyle;rounded=0;orthogonalLoop=1;jettySize=auto;html=1;" edge="1" parent="1" source="XqavyRiX7k_gru05BtDZ-5" target="XqavyRiX7k_gru05BtDZ-10">
          <mxGeometry relative="1" as="geometry" />
        </mxCell>
        <mxCell id="XqavyRiX7k_gru05BtDZ-30" value="" style="edgeStyle=orthogonalEdgeStyle;rounded=0;orthogonalLoop=1;jettySize=auto;html=1;" edge="1" parent="1" source="XqavyRiX7k_gru05BtDZ-5" target="XqavyRiX7k_gru05BtDZ-29">
          <mxGeometry relative="1" as="geometry" />
        </mxCell>
        <mxCell id="XqavyRiX7k_gru05BtDZ-5" value="Loop ค่าที่ผู้ใช้กรอกมา&amp;nbsp;&lt;div&gt;ลดทีละ 1 ถึง&amp;nbsp;&lt;span style=&quot;background-color: initial;&quot;&gt;2&lt;/span&gt;&lt;/div&gt;" style="rhombus;whiteSpace=wrap;html=1;" vertex="1" parent="1">
          <mxGeometry x="327.75" y="400" width="162.5" height="100" as="geometry" />
        </mxCell>
        <mxCell id="XqavyRiX7k_gru05BtDZ-6" value="Y" style="text;html=1;align=center;verticalAlign=middle;whiteSpace=wrap;rounded=0;" vertex="1" parent="1">
          <mxGeometry x="337.5" y="490" width="60" height="30" as="geometry" />
        </mxCell>
        <mxCell id="XqavyRiX7k_gru05BtDZ-7" value="N" style="text;html=1;align=center;verticalAlign=middle;whiteSpace=wrap;rounded=0;" vertex="1" parent="1">
          <mxGeometry x="454" y="410" width="60" height="30" as="geometry" />
        </mxCell>
        <mxCell id="XqavyRiX7k_gru05BtDZ-9" value="" style="edgeStyle=orthogonalEdgeStyle;rounded=0;orthogonalLoop=1;jettySize=auto;html=1;" edge="1" parent="1" source="XqavyRiX7k_gru05BtDZ-2" target="XqavyRiX7k_gru05BtDZ-4">
          <mxGeometry relative="1" as="geometry">
            <mxPoint x="409" y="290" as="sourcePoint" />
            <mxPoint x="409" y="400" as="targetPoint" />
          </mxGeometry>
        </mxCell>
        <mxCell id="XqavyRiX7k_gru05BtDZ-4" value="" style="ellipse;whiteSpace=wrap;html=1;aspect=fixed;" vertex="1" parent="1">
          <mxGeometry x="396.5" y="330" width="25" height="25" as="geometry" />
        </mxCell>
        <mxCell id="XqavyRiX7k_gru05BtDZ-16" value="" style="edgeStyle=orthogonalEdgeStyle;rounded=0;orthogonalLoop=1;jettySize=auto;html=1;" edge="1" parent="1" source="XqavyRiX7k_gru05BtDZ-10" target="XqavyRiX7k_gru05BtDZ-13">
          <mxGeometry relative="1" as="geometry" />
        </mxCell>
        <mxCell id="XqavyRiX7k_gru05BtDZ-10" value="ค่า isPrime = 1&amp;nbsp;" style="rounded=0;whiteSpace=wrap;html=1;" vertex="1" parent="1">
          <mxGeometry x="530" y="420" width="143" height="60" as="geometry" />
        </mxCell>
        <mxCell id="XqavyRiX7k_gru05BtDZ-19" value="" style="edgeStyle=orthogonalEdgeStyle;rounded=0;orthogonalLoop=1;jettySize=auto;html=1;" edge="1" parent="1" source="XqavyRiX7k_gru05BtDZ-13" target="XqavyRiX7k_gru05BtDZ-18">
          <mxGeometry relative="1" as="geometry" />
        </mxCell>
        <mxCell id="XqavyRiX7k_gru05BtDZ-21" value="" style="edgeStyle=orthogonalEdgeStyle;rounded=0;orthogonalLoop=1;jettySize=auto;html=1;" edge="1" parent="1" source="XqavyRiX7k_gru05BtDZ-13" target="XqavyRiX7k_gru05BtDZ-20">
          <mxGeometry relative="1" as="geometry" />
        </mxCell>
        <mxCell id="XqavyRiX7k_gru05BtDZ-13" value="J = 2&lt;div&gt;J * j &amp;lt;= i ; J++&lt;/div&gt;" style="rhombus;whiteSpace=wrap;html=1;" vertex="1" parent="1">
          <mxGeometry x="520" y="525" width="162.5" height="100" as="geometry" />
        </mxCell>
        <mxCell id="XqavyRiX7k_gru05BtDZ-14" value="Y" style="text;html=1;align=center;verticalAlign=middle;whiteSpace=wrap;rounded=0;" vertex="1" parent="1">
          <mxGeometry x="529.75" y="615" width="60" height="30" as="geometry" />
        </mxCell>
        <mxCell id="XqavyRiX7k_gru05BtDZ-15" value="N" style="text;html=1;align=center;verticalAlign=middle;whiteSpace=wrap;rounded=0;" vertex="1" parent="1">
          <mxGeometry x="646.25" y="535" width="60" height="30" as="geometry" />
        </mxCell>
        <mxCell id="XqavyRiX7k_gru05BtDZ-27" value="" style="edgeStyle=orthogonalEdgeStyle;rounded=0;orthogonalLoop=1;jettySize=auto;html=1;" edge="1" parent="1" source="XqavyRiX7k_gru05BtDZ-18" target="XqavyRiX7k_gru05BtDZ-26">
          <mxGeometry relative="1" as="geometry" />
        </mxCell>
        <mxCell id="XqavyRiX7k_gru05BtDZ-18" value="ค่าที่ผู้ใช้กรอกมา หาร&lt;div&gt;J = 0 ?&lt;/div&gt;" style="rounded=0;whiteSpace=wrap;html=1;" vertex="1" parent="1">
          <mxGeometry x="750" y="545" width="120" height="60" as="geometry" />
        </mxCell>
        <mxCell id="XqavyRiX7k_gru05BtDZ-28" style="edgeStyle=orthogonalEdgeStyle;rounded=0;orthogonalLoop=1;jettySize=auto;html=1;entryX=1;entryY=0.5;entryDx=0;entryDy=0;" edge="1" parent="1" source="XqavyRiX7k_gru05BtDZ-20" target="XqavyRiX7k_gru05BtDZ-4">
          <mxGeometry relative="1" as="geometry">
            <Array as="points">
              <mxPoint x="602" y="780" />
              <mxPoint x="950" y="780" />
              <mxPoint x="950" y="343" />
            </Array>
          </mxGeometry>
        </mxCell>
        <mxCell id="XqavyRiX7k_gru05BtDZ-20" value="แสดงค่า" style="shape=parallelogram;perimeter=parallelogramPerimeter;whiteSpace=wrap;html=1;fixedSize=1;" vertex="1" parent="1">
          <mxGeometry x="506.5" y="660" width="190" height="60" as="geometry" />
        </mxCell>
        <mxCell id="XqavyRiX7k_gru05BtDZ-26" value="break" style="rounded=0;whiteSpace=wrap;html=1;" vertex="1" parent="1">
          <mxGeometry x="750" y="660" width="120" height="60" as="geometry" />
        </mxCell>
        <mxCell id="XqavyRiX7k_gru05BtDZ-29" value="END" style="ellipse;whiteSpace=wrap;html=1;" vertex="1" parent="1">
          <mxGeometry x="349" y="605" width="120" height="80" as="geometry" />
        </mxCell>
      </root>
    </mxGraphModel>
  </diagram>
</mxfile>
